<svg width="9" height="8" viewBox="0 0 9 8" fill="none" xmlns="http://www.w3.org/2000/svg">
<path d="M2.91663 5.26672L7.58747 0.595882C7.73261 0.450743 7.91733 0.378174 8.14163 0.378174C8.36594 0.378174 8.55066 0.450743 8.6958 0.595882C8.84094 0.741021 8.91351 0.925743 8.91351 1.15005C8.91351 1.37435 8.84094 1.55908 8.6958 1.70422L3.4708 6.92921C3.31247 7.08755 3.12774 7.16672 2.91663 7.16672C2.70552 7.16672 2.5208 7.08755 2.36247 6.92921L0.304134 4.87088C0.158995 4.72574 0.0864258 4.54102 0.0864258 4.31671C0.0864258 4.09241 0.158995 3.90769 0.304134 3.76255C0.449273 3.61741 0.633995 3.54484 0.858301 3.54484C1.08261 3.54484 1.26733 3.61741 1.41247 3.76255L2.91663 5.26672Z" fill="white"/>
</svg>
