<svg width="31" height="30" viewBox="0 0 31 30" fill="none" xmlns="http://www.w3.org/2000/svg">
<g clip-path="url(#clip0_904_294)">
<path fill-rule="evenodd" clip-rule="evenodd" d="M12.9338 3.65692C10.3139 2.32619 7.86697 2.22476 6.04732 3.2732C4.22831 4.32126 3.09388 6.48498 2.93894 9.4129C2.78473 12.3272 3.62667 15.8314 5.57074 19.192C7.27672 22.1411 9.50353 24.4122 11.7852 25.8191C11.4081 24.8752 11.1986 23.8327 11.1417 22.7569C11.001 20.0986 11.7654 17.0645 13.3988 14.2412C14.7969 11.8247 16.6473 9.88161 18.6415 8.61503C16.9384 6.3661 14.9323 4.67198 12.9338 3.65692ZM20.025 10.6843C18.3919 11.709 16.7891 13.3508 15.5534 15.4868C14.1256 17.9547 13.5155 20.5153 13.6271 22.6254C13.7395 24.7493 14.557 26.2483 15.7948 26.9614C16.2459 27.2214 16.7599 27.3809 17.3229 27.4321C18.1646 27.3684 18.9413 27.1364 19.6285 26.7404C21.078 25.9053 22.0928 24.3615 22.5237 22.2871C22.6335 21.7584 22.7054 21.1952 22.7369 20.6004C22.8911 17.6861 22.0491 14.1819 20.1051 10.8216C20.0785 10.7757 20.0518 10.7299 20.025 10.6843ZM17.3096 29.9275C15.4323 30.0231 13.469 29.5168 11.6148 28.5751C8.51933 27.0028 5.56578 24.1536 3.41612 20.4375C1.26652 16.7216 0.270268 12.7439 0.453487 9.28147C0.635984 5.83273 2.0146 2.72506 4.80441 1.11764C7.59357 -0.4894 10.9784 -0.127041 14.0613 1.43884C15.3193 2.07779 16.5538 2.92761 17.7204 3.96077C17.726 3.96557 17.7316 3.97043 17.7371 3.97535C18.8706 4.98156 19.942 6.16234 20.9091 7.49442C22.9272 6.77534 25.0545 6.74962 26.8797 7.80151M24.9438 22.8641C25.0916 22.176 25.1838 21.4615 25.2224 20.7318C25.4043 17.2956 24.4247 13.3519 22.309 9.66051C23.5948 9.32027 24.74 9.44021 25.6367 9.95702L25.6369 9.95715C26.8749 10.6703 27.6925 12.1694 27.805 14.2931C27.9167 16.4033 27.3066 18.9639 25.8788 21.4317C25.5862 21.9375 25.2731 22.4155 24.9438 22.8641ZM17.3096 29.9275C18.7941 30.0128 20.3362 29.6144 21.7729 28.8847C24.1492 27.6777 26.4 25.5006 28.0334 22.6773C29.6667 19.8541 30.4312 16.8199 30.2904 14.1616C30.1504 11.5171 29.0886 9.07416 26.8799 7.80163" fill="#31728D"/>
</g>
<defs>
<clipPath id="clip0_904_294">
<rect width="30" height="30" fill="white" transform="translate(0.348633)"/>
</clipPath>
</defs>
</svg>
